<svg version="1.1" id="Layer_1" xmlns="http://www.w3.org/2000/svg" xmlns:xlink="http://www.w3.org/1999/xlink" x="0px" y="0px"
	 width="100%" viewBox="0 0 500 500" enable-background="new 0 0 500 500" xml:space="preserve">
<path fill="#000000" opacity="1.000000" stroke="none" 
	d="
M279.000000,501.000000 
	C186.000015,501.000000 93.500046,501.000000 1.000050,501.000000 
	C1.000033,334.333405 1.000033,167.666794 1.000017,1.000139 
	C167.666565,1.000093 334.333130,1.000093 500.999756,1.000046 
	C500.999847,167.666519 500.999847,334.333038 500.999939,500.999786 
	C427.166656,501.000000 353.333344,501.000000 279.000000,501.000000 
M454.003143,284.645325 
	C454.668030,280.146729 455.768219,275.662872 455.921234,271.146942 
	C456.530304,253.170792 456.254303,235.163910 452.661804,217.495346 
	C449.659027,202.726852 445.404114,188.331955 439.310699,174.358566 
	C429.821014,152.596970 417.296234,132.960526 401.072144,115.827728 
	C392.973999,107.275978 383.740417,99.737617 374.612671,92.237030 
	C360.569489,80.697212 344.523010,72.440422 327.849365,65.433220 
	C309.135315,57.568535 289.443176,52.662064 269.360535,51.332973 
	C249.566208,50.022968 229.683578,50.621571 209.883316,54.736416 
	C183.512344,60.216774 159.183319,70.071327 136.858902,84.798424 
	C120.636826,95.499916 106.514481,108.701126 93.835182,123.517723 
	C84.100952,134.892822 75.830513,147.143707 68.967201,160.395782 
	C52.109589,192.945404 43.691601,227.259064 45.795559,264.172302 
	C46.560879,277.599548 47.978546,290.791809 51.014153,303.835480 
	C58.765446,337.141998 74.015114,366.703003 96.779015,392.114929 
	C116.761459,414.421753 140.332352,431.951660 167.976822,444.170197 
	C189.070068,453.493103 211.042953,459.085541 233.737183,460.697205 
	C253.202454,462.079498 272.759796,461.264862 292.212982,457.238281 
	C318.120178,451.875763 341.750793,441.700287 363.880035,427.594940 
	C380.582855,416.948395 395.120026,403.786774 407.782104,388.609436 
	C412.852051,382.532379 417.547577,376.104553 421.985718,369.546844 
	C431.208618,355.919098 439.064789,341.463531 443.879517,325.714935 
	C447.910583,312.529572 450.674957,298.956970 454.003143,284.645325 
z"/>
<path fill="#FFFFFF" opacity="1.000000" stroke="none" 
	d="
M454.001709,285.100586 
	C450.674957,298.956970 447.910583,312.529572 443.879517,325.714935 
	C439.064789,341.463531 431.208618,355.919098 421.985718,369.546844 
	C417.547577,376.104553 412.852051,382.532379 407.782104,388.609436 
	C395.120026,403.786774 380.582855,416.948395 363.880035,427.594940 
	C341.750793,441.700287 318.120178,451.875763 292.212982,457.238281 
	C272.759796,461.264862 253.202454,462.079498 233.737183,460.697205 
	C211.042953,459.085541 189.070068,453.493103 167.976822,444.170197 
	C140.332352,431.951660 116.761459,414.421753 96.779015,392.114929 
	C74.015114,366.703003 58.765446,337.141998 51.014153,303.835480 
	C47.978546,290.791809 46.560879,277.599548 45.795559,264.172302 
	C43.691601,227.259064 52.109589,192.945404 68.967201,160.395782 
	C75.830513,147.143707 84.100952,134.892822 93.835182,123.517723 
	C106.514481,108.701126 120.636826,95.499916 136.858902,84.798424 
	C159.183319,70.071327 183.512344,60.216774 209.883316,54.736416 
	C229.683578,50.621571 249.566208,50.022968 269.360535,51.332973 
	C289.443176,52.662064 309.135315,57.568535 327.849365,65.433220 
	C344.523010,72.440422 360.569489,80.697212 374.612671,92.237030 
	C383.740417,99.737617 392.973999,107.275978 401.072144,115.827728 
	C417.296234,132.960526 429.821014,152.596970 439.310699,174.358566 
	C445.404114,188.331955 449.659027,202.726852 452.661804,217.495346 
	C456.254303,235.163910 456.530304,253.170792 455.921234,271.146942 
	C455.768219,275.662872 454.668030,280.146729 454.001709,285.100586 
M399.970093,134.645935 
	C390.670990,125.286369 381.986420,115.193718 371.917145,106.752884 
	C359.344147,96.213188 345.266296,87.734543 330.171661,80.916237 
	C309.047089,71.374214 286.972168,65.622818 263.977661,64.164238 
	C244.454910,62.925880 224.977539,64.283829 205.799957,68.949089 
	C175.986526,76.201714 149.143173,89.549400 126.155479,109.628105 
	C102.851273,129.983276 84.501266,154.280258 72.830032,183.386688 
	C65.687241,201.199814 60.415920,219.514664 59.255295,238.511185 
	C57.825176,261.918549 59.136475,285.223480 65.801491,308.155365 
	C73.817360,335.735046 86.759651,360.512634 105.628609,381.910065 
	C124.561684,403.380188 146.972458,420.438171 173.483948,432.055542 
	C193.686005,440.908112 214.736115,446.112915 236.492966,447.783386 
	C254.685623,449.180206 272.945038,447.946838 290.936035,444.041779 
	C314.288025,438.973022 335.974243,429.831940 355.913055,416.884277 
	C370.612610,407.338837 384.358002,396.363953 395.114502,382.289490 
	C403.259247,371.632446 411.885132,361.149353 418.510040,349.566803 
	C430.572968,328.476654 438.167328,305.733582 441.248016,281.349152 
	C443.270569,265.340454 443.582184,249.442352 441.803711,233.599747 
	C439.991150,217.453415 436.231750,201.593597 430.006409,186.442871 
	C422.427002,167.996704 413.190399,150.534348 399.970093,134.645935 
z"/>
<path fill="#000000" opacity="1.000000" stroke="none" 
	d="
M400.000854,135.006927 
	C413.190399,150.534348 422.427002,167.996704 430.006409,186.442871 
	C436.231750,201.593597 439.991150,217.453415 441.803711,233.599747 
	C443.582184,249.442352 443.270569,265.340454 441.248016,281.349152 
	C438.167328,305.733582 430.572968,328.476654 418.510040,349.566803 
	C411.885132,361.149353 403.259247,371.632446 395.114502,382.289490 
	C384.358002,396.363953 370.612610,407.338837 355.913055,416.884277 
	C335.974243,429.831940 314.288025,438.973022 290.936035,444.041779 
	C272.945038,447.946838 254.685623,449.180206 236.492966,447.783386 
	C214.736115,446.112915 193.686005,440.908112 173.483948,432.055542 
	C146.972458,420.438171 124.561684,403.380188 105.628609,381.910065 
	C86.759651,360.512634 73.817360,335.735046 65.801491,308.155365 
	C59.136475,285.223480 57.825176,261.918549 59.255295,238.511185 
	C60.415920,219.514664 65.687241,201.199814 72.830032,183.386688 
	C84.501266,154.280258 102.851273,129.983276 126.155479,109.628105 
	C149.143173,89.549400 175.986526,76.201714 205.799957,68.949089 
	C224.977539,64.283829 244.454910,62.925880 263.977661,64.164238 
	C286.972168,65.622818 309.047089,71.374214 330.171661,80.916237 
	C345.266296,87.734543 359.344147,96.213188 371.917145,106.752884 
	C381.986420,115.193718 390.670990,125.286369 400.000854,135.006927 
M253.454437,83.000000 
	C249.789230,83.000008 246.118210,82.866058 242.459869,83.024529 
	C230.327087,83.550079 219.029404,94.010483 219.013855,104.821754 
	C218.972900,133.310852 218.910812,161.800537 219.057739,190.288940 
	C219.098495,198.192856 223.555283,204.096115 230.015579,207.894180 
	C241.508728,214.651093 254.242981,213.097107 266.308533,210.574295 
	C275.900543,208.568680 283.363831,197.586792 282.489502,190.862091 
	C274.774109,190.862091 267.006897,190.862091 259.251007,190.862091 
	C259.251007,188.420120 259.251007,186.349548 259.251007,183.894104 
	C267.243835,183.894104 274.993317,183.894104 282.747803,183.894104 
	C282.747803,180.754059 282.747803,178.016861 282.747803,174.897705 
	C274.750977,174.897705 267.000397,174.897705 259.245728,174.897705 
	C259.245728,172.429504 259.245728,170.359161 259.245728,167.903168 
	C267.232422,167.903168 274.981781,167.903168 282.752899,167.903168 
	C282.752899,164.763870 282.752899,162.026855 282.752899,158.906784 
	C274.762604,158.906784 267.011444,158.906784 259.240448,158.906784 
	C259.240448,156.438904 259.240448,154.368790 259.240448,151.912262 
	C267.221924,151.912262 274.971710,151.912262 282.757996,151.912262 
	C282.757996,148.773697 282.757996,146.036865 282.757996,142.915863 
	C274.772430,142.915863 267.019806,142.915863 259.235168,142.915863 
	C259.235168,140.445480 259.235168,138.375763 259.235168,135.921326 
	C267.211792,135.921326 274.962677,135.921326 282.763123,135.921326 
	C282.763123,132.782608 282.763123,130.046066 282.763123,126.924942 
	C274.783539,126.924942 267.032013,126.924942 259.229919,126.924942 
	C259.229919,124.455276 259.229919,122.385742 259.229919,119.930420 
	C267.201019,119.930420 274.952118,119.930420 282.768250,119.930420 
	C282.768250,116.792648 282.768250,114.056320 282.768250,110.934036 
	C274.793579,110.934036 267.040955,110.934036 259.224609,110.934036 
	C259.224609,108.467331 259.224609,106.397835 259.224609,104.014664 
	C267.225647,104.014664 275.009277,104.014664 283.629272,104.014664 
	C282.179779,100.724556 281.253021,97.837364 279.731842,95.307571 
	C274.001587,85.777863 265.168732,82.370407 253.454437,83.000000 
M211.680862,283.999756 
	C238.746841,283.999756 265.812805,283.999756 292.666595,283.999756 
	C292.666595,277.922699 292.666595,272.515076 292.666595,266.733978 
	C281.263702,266.733978 270.191345,266.733978 259.301636,266.733978 
	C259.301636,257.581635 259.301636,248.824799 259.301636,240.467270 
	C262.381439,239.937775 265.112366,239.525101 267.819977,238.993668 
	C287.463959,235.138046 300.780884,223.769226 308.021820,205.152252 
	C313.871094,190.113312 309.581451,174.552719 311.208344,159.266754 
	C305.392426,159.266754 300.321686,159.266754 295.000000,159.266754 
	C295.000000,164.666199 295.130035,169.806976 294.963867,174.938141 
	C294.793823,180.188965 294.459961,185.442062 293.977112,190.673782 
	C292.364960,208.141617 280.966522,218.728104 267.149200,221.687439 
	C257.941925,223.659409 247.986694,223.707397 238.569977,222.704086 
	C228.599869,221.641800 220.197617,216.536713 214.108337,207.798935 
	C208.928207,200.365723 207.488449,192.135574 207.082458,183.585800 
	C206.698593,175.501770 207.000000,167.385208 207.000000,159.251678 
	C201.423874,159.251678 196.353561,159.251678 191.000000,159.251678 
	C191.000000,169.296188 191.163452,179.095108 190.960739,188.886459 
	C190.674469,202.713287 196.495956,214.065140 205.473541,223.822632 
	C215.347000,234.553879 228.281601,239.203369 242.635590,240.269821 
	C242.635590,249.218292 242.635590,258.081329 242.635590,267.328064 
	C231.199951,267.328064 220.127884,267.328064 209.000244,267.328064 
	C209.000244,272.215820 208.903534,276.714661 209.078064,281.203003 
	C209.115036,282.153778 210.142868,283.066040 211.680862,283.999756 
M308.999969,342.163818 
	C310.841248,329.071533 300.390991,323.702972 290.564453,323.977600 
	C285.902863,324.107910 281.234283,324.035248 276.569458,323.990662 
	C271.317566,323.940430 267.021912,320.109283 267.000366,315.536102 
	C266.974731,310.083771 270.937408,306.069702 276.503723,306.011108 
	C281.501648,305.958466 286.500549,305.999420 291.499023,306.000153 
	C299.101868,306.001251 302.045715,308.398865 303.506439,315.747253 
	C305.278534,315.747253 307.039001,315.747253 308.779480,315.747253 
	C309.165710,309.099701 305.134247,301.411652 299.727417,300.372833 
	C289.931793,298.490814 279.977020,297.530792 270.190430,300.950165 
	C263.818390,303.176514 260.623749,308.737579 261.000031,317.146271 
	C261.241302,322.538239 266.592316,329.290955 272.033478,329.888733 
	C279.212677,330.677551 286.478149,330.706665 293.709473,330.986481 
	C298.793335,331.183258 302.885040,334.974670 302.999908,339.742096 
	C303.121887,344.804688 299.055939,348.904205 293.724670,348.987000 
	C289.560303,349.051727 285.394104,349.000000 281.228729,349.000000 
	C270.618988,349.000000 270.082947,348.645782 266.270081,339.177673 
	C264.610718,339.177673 262.987183,339.177673 261.386108,339.177673 
	C260.477936,347.961945 266.654663,354.963623 275.194855,354.995667 
	C281.192932,355.018188 287.235901,354.540497 293.177765,355.118958 
	C300.250305,355.807465 307.366364,351.016022 308.999969,342.163818 
M233.546600,306.961609 
	C228.729645,314.654297 223.912674,322.346985 218.624802,330.791687 
	C212.838623,321.354492 207.257904,312.416016 201.854034,303.371826 
	C199.021133,298.630585 198.022964,298.128906 191.831726,299.895874 
	C197.234360,308.520203 202.413589,317.201843 208.011566,325.604492 
	C213.324310,333.578979 216.520172,341.941406 215.037704,351.683228 
	C214.877197,352.737915 215.236908,353.871735 215.342178,354.846985 
	C217.630920,354.846985 219.589096,354.846985 221.855133,354.846985 
	C221.907745,353.757385 222.132980,352.772125 221.972580,351.854248 
	C220.052032,340.864746 224.917603,332.154327 230.830521,323.513733 
	C236.053970,315.880646 240.511902,307.723694 245.434921,299.587982 
	C238.232956,298.810211 239.082611,296.632629 233.546600,306.961609 
M206.396072,400.950623 
	C209.576385,397.157990 214.764313,396.798645 218.580597,399.977997 
	C219.142105,400.445801 220.191833,400.327576 221.015671,400.480499 
	C221.013992,399.687195 221.257843,398.788422 220.969818,398.118164 
	C219.396652,394.457245 217.684662,390.856201 216.037109,387.226959 
	C215.187698,385.355804 214.372986,383.468872 213.542603,381.589081 
	C213.058823,381.669495 212.575058,381.749908 212.091293,381.830322 
	C209.414352,387.940704 206.733307,394.049316 204.125854,400.189178 
	C204.102905,400.243195 205.067642,400.716644 206.396072,400.950623 
M165.001312,400.999329 
	C165.999969,400.999542 166.998703,401.008118 167.997269,400.998596 
	C173.616760,400.945160 177.298172,397.804932 177.993866,392.477020 
	C178.494827,388.640350 174.970642,383.151642 171.343674,382.119751 
	C166.238464,380.667297 161.693390,382.576996 159.353470,387.157654 
	C156.578949,392.589111 157.895355,396.375336 165.001312,400.999329 
M299.999939,390.747070 
	C298.857727,384.430115 294.781433,381.247192 288.800385,382.002014 
	C283.758942,382.638275 280.522766,387.470642 281.000580,393.649109 
	C281.398438,398.793549 284.753448,401.135437 291.531433,400.999969 
	C297.324341,400.884186 299.870148,398.054260 299.999939,390.747070 
M310.061707,398.018341 
	C314.329651,398.694000 318.597595,399.369629 322.911865,400.052612 
	C320.299194,394.189240 317.507965,387.925018 314.716705,381.660797 
	C314.199921,381.683777 313.683167,381.706726 313.166382,381.729675 
	C310.424774,387.993683 307.683167,394.257721 304.941559,400.521729 
	C305.340271,400.856903 305.738983,401.192078 306.137665,401.527252 
	C307.172546,400.439850 308.207397,399.352417 310.061707,398.018341 
M275.399414,383.939484 
	C271.202362,381.067871 266.627411,380.683929 262.822357,383.927338 
	C259.415100,386.831604 257.663086,390.921570 259.997864,395.637024 
	C261.922577,399.524200 264.670135,401.677643 269.315887,401.060364 
	C272.082764,400.692657 275.298615,401.556000 275.937775,396.826080 
	C274.050171,397.285736 272.464294,397.455658 271.062805,398.056030 
	C267.640106,399.522278 265.046112,398.294586 263.261047,395.512695 
	C261.609253,392.938507 261.082581,390.286194 263.775574,387.600952 
	C266.432678,384.951416 269.153778,383.705780 272.347076,386.000549 
	C274.773956,387.744629 275.458008,386.732819 275.399414,383.939484 
M328.001190,394.113007 
	C330.727844,401.942291 338.490021,403.895691 345.825653,397.293915 
	C343.228455,397.575562 341.629456,397.321106 340.530487,397.946014 
	C336.784882,400.075836 333.849487,398.357513 332.290894,395.482697 
	C331.173828,393.422211 330.913757,389.832703 331.999176,387.891418 
	C333.638245,384.959869 336.969666,383.881622 340.495575,385.829681 
	C341.316101,386.283051 342.368317,386.317139 343.313904,386.544159 
	C343.577209,386.049042 343.840546,385.553955 344.103851,385.058868 
	C342.492249,384.040222 340.986023,382.409424 339.250458,382.110718 
	C332.354370,380.923615 328.021057,385.381287 328.001190,394.113007 
M185.963074,393.575592 
	C183.547119,390.330322 185.962494,387.965546 188.096558,386.666199 
	C189.962524,385.530060 192.775330,385.924194 195.175232,385.700256 
	C196.374664,385.588318 197.586182,385.605957 198.792252,385.564972 
	C197.932312,384.619934 197.250732,383.301178 196.182968,382.791565 
	C190.070877,379.874451 182.936737,384.039795 182.409241,391.316345 
	C182.132584,395.132538 183.826355,398.833618 187.997589,400.503784 
	C192.190262,402.182587 196.794937,400.980194 199.588531,396.581085 
	C194.178925,398.328735 188.999435,400.724091 185.963074,393.575592 
M145.947327,393.468292 
	C144.773972,392.943970 143.079834,392.736908 142.529297,391.833191 
	C141.130966,389.537781 140.393341,386.848541 139.090302,384.482697 
	C138.446732,383.314209 137.138306,382.511871 136.130722,381.543854 
	C137.697281,388.041046 140.067261,393.631775 142.654083,399.120331 
	C143.834152,401.624115 144.972885,401.780029 145.983337,399.661957 
	C148.639114,394.095123 151.006317,388.390625 153.488480,382.740967 
	C153.130615,382.401367 152.772751,382.061737 152.414902,381.722107 
	C151.609940,382.292633 150.446838,382.686676 150.063400,383.464844 
	C148.584656,386.466034 147.355026,389.589935 145.947327,393.468292 
M361.291626,390.000000 
	C358.211456,390.000000 355.131287,390.000000 352.082794,390.000000 
	C351.928894,382.788269 351.928894,382.788269 349.273254,382.193909 
	C349.273254,388.465302 349.273254,394.697815 349.273254,400.930328 
	C349.838409,401.059662 350.403534,401.188995 350.968689,401.318329 
	C351.501099,398.614868 352.033508,395.911438 352.606903,393.000000 
	C355.207123,393.000000 357.933563,393.400696 360.460968,392.863953 
	C362.247955,392.484467 366.469879,395.936157 365.792297,390.000000 
	C364.518219,390.000000 363.364990,390.000000 361.291626,390.000000 
M227.000000,395.411133 
	C227.000000,397.177032 227.000000,398.942963 227.000000,400.367218 
	C232.998550,400.367218 238.489639,400.367218 243.980713,400.367218 
	C243.967148,399.919861 243.953568,399.472473 243.940002,399.025116 
	C238.988068,399.025116 234.036133,399.025116 228.535339,399.025116 
	C228.535339,392.888733 228.535339,387.456421 228.535339,382.024139 
	C228.023560,382.034210 227.511780,382.044312 227.000000,382.054382 
	C227.000000,386.182465 227.000000,390.310516 227.000000,395.411133 
M365.445465,395.067047 
	C364.915497,396.243164 364.385529,397.419250 363.855560,398.595367 
	C364.414703,398.746765 364.973877,398.898163 365.533051,399.049561 
	C365.673859,397.943573 365.814667,396.837616 365.445465,395.067047 
M365.445465,384.067047 
	C364.915497,385.243164 364.385559,386.419281 363.855621,387.595398 
	C364.414764,387.746796 364.973907,387.898163 365.533051,388.049561 
	C365.673859,386.943573 365.814667,385.837616 365.445465,384.067047 
z"/>
<path fill="#FFFFFF" opacity="1.000000" stroke="none" 
	d="
M253.943115,83.000000 
	C265.168732,82.370407 274.001587,85.777863 279.731842,95.307571 
	C281.253021,97.837364 282.179779,100.724556 283.629272,104.014664 
	C275.009277,104.014664 267.225647,104.014664 259.224609,104.014664 
	C259.224609,106.397835 259.224609,108.467331 259.224609,110.934036 
	C267.040955,110.934036 274.793579,110.934036 282.768250,110.934036 
	C282.768250,114.056320 282.768250,116.792648 282.768250,119.930420 
	C274.952118,119.930420 267.201019,119.930420 259.229919,119.930420 
	C259.229919,122.385742 259.229919,124.455276 259.229919,126.924942 
	C267.032013,126.924942 274.783539,126.924942 282.763123,126.924942 
	C282.763123,130.046066 282.763123,132.782608 282.763123,135.921326 
	C274.962677,135.921326 267.211792,135.921326 259.235168,135.921326 
	C259.235168,138.375763 259.235168,140.445480 259.235168,142.915863 
	C267.019806,142.915863 274.772430,142.915863 282.757996,142.915863 
	C282.757996,146.036865 282.757996,148.773697 282.757996,151.912262 
	C274.971710,151.912262 267.221924,151.912262 259.240448,151.912262 
	C259.240448,154.368790 259.240448,156.438904 259.240448,158.906784 
	C267.011444,158.906784 274.762604,158.906784 282.752899,158.906784 
	C282.752899,162.026855 282.752899,164.763870 282.752899,167.903168 
	C274.981781,167.903168 267.232422,167.903168 259.245728,167.903168 
	C259.245728,170.359161 259.245728,172.429504 259.245728,174.897705 
	C267.000397,174.897705 274.750977,174.897705 282.747803,174.897705 
	C282.747803,178.016861 282.747803,180.754059 282.747803,183.894104 
	C274.993317,183.894104 267.243835,183.894104 259.251007,183.894104 
	C259.251007,186.349548 259.251007,188.420120 259.251007,190.862091 
	C267.006897,190.862091 274.774109,190.862091 282.489502,190.862091 
	C283.363831,197.586792 275.900543,208.568680 266.308533,210.574295 
	C254.242981,213.097107 241.508728,214.651093 230.015579,207.894180 
	C223.555283,204.096115 219.098495,198.192856 219.057739,190.288940 
	C218.910812,161.800537 218.972900,133.310852 219.013855,104.821754 
	C219.029404,94.010483 230.327087,83.550079 242.459869,83.024529 
	C246.118210,82.866058 249.789230,83.000008 253.943115,83.000000 
z"/>
<path fill="#FFFFFF" opacity="1.000000" stroke="none" 
	d="
M211.197525,283.997925 
	C210.142868,283.066040 209.115036,282.153778 209.078064,281.203003 
	C208.903534,276.714661 209.000244,272.215820 209.000244,267.328064 
	C220.127884,267.328064 231.199951,267.328064 242.635590,267.328064 
	C242.635590,258.081329 242.635590,249.218292 242.635590,240.269821 
	C228.281601,239.203369 215.347000,234.553879 205.473541,223.822632 
	C196.495956,214.065140 190.674469,202.713287 190.960739,188.886459 
	C191.163452,179.095108 191.000000,169.296188 191.000000,159.251678 
	C196.353561,159.251678 201.423874,159.251678 207.000000,159.251678 
	C207.000000,167.385208 206.698593,175.501770 207.082458,183.585800 
	C207.488449,192.135574 208.928207,200.365723 214.108337,207.798935 
	C220.197617,216.536713 228.599869,221.641800 238.569977,222.704086 
	C247.986694,223.707397 257.941925,223.659409 267.149200,221.687439 
	C280.966522,218.728104 292.364960,208.141617 293.977112,190.673782 
	C294.459961,185.442062 294.793823,180.188965 294.963867,174.938141 
	C295.130035,169.806976 295.000000,164.666199 295.000000,159.266754 
	C300.321686,159.266754 305.392426,159.266754 311.208344,159.266754 
	C309.581451,174.552719 313.871094,190.113312 308.021820,205.152252 
	C300.780884,223.769226 287.463959,235.138046 267.819977,238.993668 
	C265.112366,239.525101 262.381439,239.937775 259.301636,240.467270 
	C259.301636,248.824799 259.301636,257.581635 259.301636,266.733978 
	C270.191345,266.733978 281.263702,266.733978 292.666595,266.733978 
	C292.666595,272.515076 292.666595,277.922699 292.666595,283.999756 
	C265.812805,283.999756 238.746841,283.999756 211.197525,283.997925 
z"/>
<path fill="#FFFFFF" opacity="1.000000" stroke="none" 
	d="
M308.999512,342.600525 
	C307.366364,351.016022 300.250305,355.807465 293.177765,355.118958 
	C287.235901,354.540497 281.192932,355.018188 275.194855,354.995667 
	C266.654663,354.963623 260.477936,347.961945 261.386108,339.177673 
	C262.987183,339.177673 264.610718,339.177673 266.270081,339.177673 
	C270.082947,348.645782 270.618988,349.000000 281.228729,349.000000 
	C285.394104,349.000000 289.560303,349.051727 293.724670,348.987000 
	C299.055939,348.904205 303.121887,344.804688 302.999908,339.742096 
	C302.885040,334.974670 298.793335,331.183258 293.709473,330.986481 
	C286.478149,330.706665 279.212677,330.677551 272.033478,329.888733 
	C266.592316,329.290955 261.241302,322.538239 261.000031,317.146271 
	C260.623749,308.737579 263.818390,303.176514 270.190430,300.950165 
	C279.977020,297.530792 289.931793,298.490814 299.727417,300.372833 
	C305.134247,301.411652 309.165710,309.099701 308.779480,315.747253 
	C307.039001,315.747253 305.278534,315.747253 303.506439,315.747253 
	C302.045715,308.398865 299.101868,306.001251 291.499023,306.000153 
	C286.500549,305.999420 281.501648,305.958466 276.503723,306.011108 
	C270.937408,306.069702 266.974731,310.083771 267.000366,315.536102 
	C267.021912,320.109283 271.317566,323.940430 276.569458,323.990662 
	C281.234283,324.035248 285.902863,324.107910 290.564453,323.977600 
	C300.390991,323.702972 310.841248,329.071533 308.999512,342.600525 
z"/>
<path fill="#FFFFFF" opacity="1.000000" stroke="none" 
	d="
M233.758118,306.646240 
	C239.082611,296.632629 238.232956,298.810211 245.434921,299.587982 
	C240.511902,307.723694 236.053970,315.880646 230.830521,323.513733 
	C224.917603,332.154327 220.052032,340.864746 221.972580,351.854248 
	C222.132980,352.772125 221.907745,353.757385 221.855133,354.846985 
	C219.589096,354.846985 217.630920,354.846985 215.342178,354.846985 
	C215.236908,353.871735 214.877197,352.737915 215.037704,351.683228 
	C216.520172,341.941406 213.324310,333.578979 208.011566,325.604492 
	C202.413589,317.201843 197.234360,308.520203 191.831726,299.895874 
	C198.022964,298.128906 199.021133,298.630585 201.854034,303.371826 
	C207.257904,312.416016 212.838623,321.354492 218.624802,330.791687 
	C223.912674,322.346985 228.729645,314.654297 233.758118,306.646240 
z"/>
<path fill="#FFFFFF" opacity="1.000000" stroke="none" 
	d="
M205.983658,400.972443 
	C205.067642,400.716644 204.102905,400.243195 204.125854,400.189178 
	C206.733307,394.049316 209.414352,387.940704 212.091293,381.830322 
	C212.575058,381.749908 213.058823,381.669495 213.542603,381.589081 
	C214.372986,383.468872 215.187698,385.355804 216.037109,387.226959 
	C217.684662,390.856201 219.396652,394.457245 220.969818,398.118164 
	C221.257843,398.788422 221.013992,399.687195 221.015671,400.480499 
	C220.191833,400.327576 219.142105,400.445801 218.580597,399.977997 
	C214.764313,396.798645 209.576385,397.157990 205.983658,400.972443 
z"/>
<path fill="#FFFFFF" opacity="1.000000" stroke="none" 
	d="
M164.581985,400.994507 
	C157.895355,396.375336 156.578949,392.589111 159.353470,387.157654 
	C161.693390,382.576996 166.238464,380.667297 171.343674,382.119751 
	C174.970642,383.151642 178.494827,388.640350 177.993866,392.477020 
	C177.298172,397.804932 173.616760,400.945160 167.997269,400.998596 
	C166.998703,401.008118 165.999969,400.999542 164.581985,400.994507 
M174.998627,390.754425 
	C174.345505,389.685913 173.938461,388.107361 172.990494,387.649994 
	C170.672028,386.531433 167.821335,384.872375 165.718521,385.432892 
	C163.784012,385.948608 161.277344,389.111206 161.330154,391.044739 
	C161.392609,393.331451 163.448257,396.263702 165.496887,397.646210 
	C169.411102,400.287659 173.650238,397.320496 174.998627,390.754425 
z"/>
<path fill="#FFFFFF" opacity="1.000000" stroke="none" 
	d="
M299.999969,391.166656 
	C299.870148,398.054260 297.324341,400.884186 291.531433,400.999969 
	C284.753448,401.135437 281.398438,398.793549 281.000580,393.649109 
	C280.522766,387.470642 283.758942,382.638275 288.800385,382.002014 
	C294.781433,381.247192 298.857727,384.430115 299.999969,391.166656 
M289.678986,385.001953 
	C288.635284,385.381134 287.467621,385.574707 286.570862,386.173828 
	C283.728638,388.072754 283.048706,393.125000 285.173798,395.682587 
	C288.252380,399.387726 291.595154,400.034546 294.516235,396.734955 
	C296.014496,395.042572 297.367493,391.672974 296.648102,389.958374 
	C295.751740,387.821930 292.649628,386.610870 289.678986,385.001953 
z"/>
<path fill="#FFFFFF" opacity="1.000000" stroke="none" 
	d="
M309.651978,398.141663 
	C308.207397,399.352417 307.172546,400.439850 306.137665,401.527252 
	C305.738983,401.192078 305.340271,400.856903 304.941559,400.521729 
	C307.683167,394.257721 310.424774,387.993683 313.166382,381.729675 
	C313.683167,381.706726 314.199921,381.683777 314.716705,381.660797 
	C317.507965,387.925018 320.299194,394.189240 322.911865,400.052612 
	C318.597595,399.369629 314.329651,398.694000 309.651978,398.141663 
M311.409637,393.072845 
	C312.401093,395.393158 312.401093,395.393158 317.079865,394.235596 
	C316.057465,392.063934 315.059052,389.943298 313.792480,387.253082 
	C312.996765,389.504303 312.476105,390.977325 311.409637,393.072845 
z"/>
<path fill="#FFFFFF" opacity="1.000000" stroke="none" 
	d="
M275.673767,384.228821 
	C275.458008,386.732819 274.773956,387.744629 272.347076,386.000549 
	C269.153778,383.705780 266.432678,384.951416 263.775574,387.600952 
	C261.082581,390.286194 261.609253,392.938507 263.261047,395.512695 
	C265.046112,398.294586 267.640106,399.522278 271.062805,398.056030 
	C272.464294,397.455658 274.050171,397.285736 275.937775,396.826080 
	C275.298615,401.556000 272.082764,400.692657 269.315887,401.060364 
	C264.670135,401.677643 261.922577,399.524200 259.997864,395.637024 
	C257.663086,390.921570 259.415100,386.831604 262.822357,383.927338 
	C266.627411,380.683929 271.202362,381.067871 275.673767,384.228821 
z"/>
<path fill="#FFFFFF" opacity="1.000000" stroke="none" 
	d="
M328.000610,393.688293 
	C328.021057,385.381287 332.354370,380.923615 339.250458,382.110718 
	C340.986023,382.409424 342.492249,384.040222 344.103851,385.058868 
	C343.840546,385.553955 343.577209,386.049042 343.313904,386.544159 
	C342.368317,386.317139 341.316101,386.283051 340.495575,385.829681 
	C336.969666,383.881622 333.638245,384.959869 331.999176,387.891418 
	C330.913757,389.832703 331.173828,393.422211 332.290894,395.482697 
	C333.849487,398.357513 336.784882,400.075836 340.530487,397.946014 
	C341.629456,397.321106 343.228455,397.575562 345.825653,397.293915 
	C338.490021,403.895691 330.727844,401.942291 328.000610,393.688293 
z"/>
<path fill="#FFFFFF" opacity="1.000000" stroke="none" 
	d="
M185.998444,393.964050 
	C188.999435,400.724091 194.178925,398.328735 199.588531,396.581085 
	C196.794937,400.980194 192.190262,402.182587 187.997589,400.503784 
	C183.826355,398.833618 182.132584,395.132538 182.409241,391.316345 
	C182.936737,384.039795 190.070877,379.874451 196.182968,382.791565 
	C197.250732,383.301178 197.932312,384.619934 198.792236,385.564972 
	C197.586182,385.605957 196.374664,385.588318 195.175232,385.700256 
	C192.775330,385.924194 189.962524,385.530060 188.096558,386.666199 
	C185.962494,387.965546 183.547119,390.330322 185.998444,393.964050 
z"/>
<path fill="#FFFFFF" opacity="1.000000" stroke="none" 
	d="
M145.989929,393.068176 
	C147.355026,389.589935 148.584656,386.466034 150.063400,383.464844 
	C150.446838,382.686676 151.609940,382.292633 152.414902,381.722107 
	C152.772751,382.061737 153.130615,382.401367 153.488480,382.740967 
	C151.006317,388.390625 148.639114,394.095123 145.983337,399.661957 
	C144.972885,401.780029 143.834152,401.624115 142.654083,399.120331 
	C140.067261,393.631775 137.697281,388.041046 136.130722,381.543854 
	C137.138306,382.511871 138.446732,383.314209 139.090302,384.482697 
	C140.393341,386.848541 141.130966,389.537781 142.529297,391.833191 
	C143.079834,392.736908 144.773972,392.943970 145.989929,393.068176 
z"/>
<path fill="#FFFFFF" opacity="1.000000" stroke="none" 
	d="
M361.751709,390.000000 
	C363.364990,390.000000 364.518219,390.000000 365.792297,390.000000 
	C366.469879,395.936157 362.247955,392.484467 360.460968,392.863953 
	C357.933563,393.400696 355.207123,393.000000 352.606903,393.000000 
	C352.033508,395.911438 351.501099,398.614868 350.968689,401.318329 
	C350.403534,401.188995 349.838409,401.059662 349.273254,400.930328 
	C349.273254,394.697815 349.273254,388.465302 349.273254,382.193909 
	C351.928894,382.788269 351.928894,382.788269 352.082794,390.000000 
	C355.131287,390.000000 358.211456,390.000000 361.751709,390.000000 
z"/>
<path fill="#FFFFFF" opacity="1.000000" stroke="none" 
	d="
M227.000000,394.924866 
	C227.000000,390.310516 227.000000,386.182465 227.000000,382.054382 
	C227.511780,382.044312 228.023560,382.034210 228.535339,382.024139 
	C228.535339,387.456421 228.535339,392.888733 228.535339,399.025116 
	C234.036133,399.025116 238.988068,399.025116 243.940002,399.025116 
	C243.953568,399.472473 243.967148,399.919861 243.980713,400.367218 
	C238.489639,400.367218 232.998550,400.367218 227.000000,400.367218 
	C227.000000,398.942963 227.000000,397.177032 227.000000,394.924866 
z"/>
<path fill="#FFFFFF" opacity="1.000000" stroke="none" 
	d="
M365.700470,395.399353 
	C365.814667,396.837616 365.673859,397.943573 365.533051,399.049561 
	C364.973877,398.898163 364.414703,398.746765 363.855560,398.595367 
	C364.385529,397.419250 364.915497,396.243164 365.700470,395.399353 
z"/>
<path fill="#FFFFFF" opacity="1.000000" stroke="none" 
	d="
M365.700470,384.399353 
	C365.814667,385.837616 365.673859,386.943573 365.533051,388.049561 
	C364.973907,387.898163 364.414764,387.746796 363.855621,387.595398 
	C364.385559,386.419281 364.915497,385.243164 365.700470,384.399353 
z"/>
<path fill="#000000" opacity="1.000000" stroke="none" 
	d="
M174.999207,391.152100 
	C173.650238,397.320496 169.411102,400.287659 165.496887,397.646210 
	C163.448257,396.263702 161.392609,393.331451 161.330154,391.044739 
	C161.277344,389.111206 163.784012,385.948608 165.718521,385.432892 
	C167.821335,384.872375 170.672028,386.531433 172.990494,387.649994 
	C173.938461,388.107361 174.345505,389.685913 174.999207,391.152100 
z"/>
<path fill="#000000" opacity="1.000000" stroke="none" 
	d="
M290.089478,385.001099 
	C292.649628,386.610870 295.751740,387.821930 296.648102,389.958374 
	C297.367493,391.672974 296.014496,395.042572 294.516235,396.734955 
	C291.595154,400.034546 288.252380,399.387726 285.173798,395.682587 
	C283.048706,393.125000 283.728638,388.072754 286.570862,386.173828 
	C287.467621,385.574707 288.635284,385.381134 290.089478,385.001099 
z"/>
<path fill="#000000" opacity="1.000000" stroke="none" 
	d="
M311.682556,392.761597 
	C312.476105,390.977325 312.996765,389.504303 313.792480,387.253082 
	C315.059052,389.943298 316.057465,392.063934 317.079865,394.235596 
	C312.401093,395.393158 312.401093,395.393158 311.682556,392.761597 
z"/>
</svg>